<svg width="24" height="24" viewBox="0 0 24 24" fill="none" xmlns="http://www.w3.org/2000/svg">
    <path d="M6 10V8C6 4.68629 8.68629 2 12 2C15.3137 2 18 4.68629 18 8V10M8 22H16C18.8284 22 20.2426 22 21.1213 21.1213C22 20.2426 22 18.8284 22 16C22 13.1716 22 11.7574 21.1213 10.8787C20.2426 10 18.8284 10 16 10H8C5.17157 10 3.75736 10 2.87868 10.8787C2 11.7574 2 13.1716 2 16C2 18.8284 2 20.2426 2.87868 21.1213C3.75736 22 5.17157 22 8 22Z" stroke="#A0A1A5" stroke-width="2" stroke-linecap="round"/>
</svg>
